<svg width="400" height="300" viewBox="0 0 400 300" fill="none" xmlns="http://www.w3.org/2000/svg">
  <rect width="400" height="300" rx="24" fill="#EAF6FF"/>
  <g>
    <rect x="80" y="40" width="240" height="200" rx="16" fill="#fff" stroke="#B3E5FC" stroke-width="3"/>
    <rect x="100" y="70" width="200" height="24" rx="8" fill="#B3E5FC"/>
    <rect x="100" y="110" width="140" height="12" rx="6" fill="#E0E0E0"/>
    <rect x="100" y="130" width="180" height="12" rx="6" fill="#E0E0E0"/>
    <rect x="100" y="150" width="160" height="12" rx="6" fill="#E0E0E0"/>
    <rect x="100" y="170" width="120" height="12" rx="6" fill="#E0E0E0"/>
    <rect x="100" y="190" width="140" height="12" rx="6" fill="#E0E0E0"/>
    <circle cx="130" cy="100" r="14" fill="#B3E5FC"/>
    <rect x="150" y="92" width="80" height="8" rx="4" fill="#E0E0E0"/>
    <rect x="150" y="104" width="60" height="6" rx="3" fill="#E0E0E0"/>
    <rect x="100" y="210" width="70" height="12" rx="6" fill="#B3E5FC"/>
    <rect x="180" y="210" width="40" height="12" rx="6" fill="#B3E5FC"/>
  </g>
  <ellipse cx="200" cy="260" rx="70" ry="10" fill="#B3E5FC" opacity="0.3"/>
  <g>
    <rect x="270" y="60" width="30" height="30" rx="8" fill="#B3E5FC" opacity="0.7"/>
    <rect x="280" y="70" width="10" height="10" rx="2" fill="#fff"/>
  </g>
</svg>
